<svg xmlns="http://www.w3.org/2000/svg" xmlns:xlink="http://www.w3.org/1999/xlink" width="940" zoomAndPan="magnify" viewBox="0 0 705 591.000005" height="788" preserveAspectRatio="xMidYMid meet" version="1.0"><defs><g/><clipPath id="5db3b1baf9"><path d="M 557.828125 25.179688 L 607.992188 25.179688 L 607.992188 75.34375 L 557.828125 75.34375 Z M 557.828125 25.179688 " clip-rule="nonzero"/></clipPath><clipPath id="bc48ada646"><path d="M 94 69 L 525 69 L 525 543 L 94 543 Z M 94 69 " clip-rule="nonzero"/></clipPath><clipPath id="330e8e7798"><path d="M -22.488281 359.300781 L 347.058594 -10.246094 L 622.363281 265.0625 L 252.816406 634.605469 Z M -22.488281 359.300781 " clip-rule="nonzero"/></clipPath><clipPath id="415fe71b94"><path d="M -22.488281 359.300781 L 347.058594 -10.246094 L 622.363281 265.0625 L 252.816406 634.605469 Z M -22.488281 359.300781 " clip-rule="nonzero"/></clipPath></defs><g clip-path="url(#5db3b1baf9)"><path fill="#ffffff" d="M 584.78125 62.746094 L 573.808594 73.714844 C 573.042969 74.480469 571.792969 74.484375 571.023438 73.722656 L 559.921875 62.738281 C 559.15625 61.976562 559.410156 61.355469 560.492188 61.355469 L 584.203125 61.355469 C 585.285156 61.355469 585.542969 61.980469 584.78125 62.746094 Z M 581.617188 39.171875 L 605.332031 39.171875 C 606.414062 39.171875 606.667969 38.546875 605.898438 37.789062 L 594.800781 26.804688 C 594.03125 26.042969 592.777344 26.046875 592.015625 26.808594 L 581.042969 37.78125 C 580.28125 38.546875 580.539062 39.171875 581.617188 39.171875 Z M 591.667969 57.191406 L 574.902344 73.960938 C 574.136719 74.722656 574.398438 75.34375 575.476562 75.339844 L 591.09375 75.257812 C 592.175781 75.253906 593.058594 74.363281 593.058594 73.285156 L 593.058594 57.769531 C 593.058594 56.6875 592.433594 56.429688 591.667969 57.191406 Z M 574.152344 43.332031 L 590.921875 26.566406 C 591.683594 25.800781 591.425781 25.179688 590.347656 25.1875 L 574.730469 25.269531 C 573.648438 25.273438 572.765625 26.160156 572.765625 27.242188 L 572.765625 42.757812 C 572.765625 43.839844 573.390625 44.097656 574.152344 43.332031 Z M 595.394531 48.394531 C 594.628906 47.632812 594.003906 47.890625 594.003906 48.96875 L 594.003906 72.683594 C 594.003906 73.765625 594.625 74.019531 595.386719 73.25 L 606.371094 62.152344 C 607.132812 61.382812 607.128906 60.128906 606.363281 59.367188 Z M 570.429688 52.132812 C 571.195312 52.894531 571.820312 52.636719 571.820312 51.554688 L 571.820312 27.84375 C 571.820312 26.761719 571.195312 26.507812 570.4375 27.273438 L 559.453125 38.375 C 558.691406 39.140625 558.695312 40.394531 559.457031 41.160156 Z M 607.90625 42.082031 C 607.902344 41 607.011719 40.117188 605.933594 40.117188 L 590.417969 40.117188 C 589.335938 40.117188 589.078125 40.742188 589.839844 41.503906 L 606.609375 58.273438 C 607.371094 59.035156 607.992188 58.777344 607.988281 57.699219 Z M 575.40625 60.410156 C 576.488281 60.410156 576.746094 59.785156 575.980469 59.019531 L 559.214844 42.253906 C 558.449219 41.488281 557.828125 41.746094 557.835938 42.828125 L 557.917969 58.445312 C 557.921875 59.527344 558.808594 60.410156 559.890625 60.410156 Z M 575.40625 60.410156 " fill-opacity="1" fill-rule="nonzero"/></g><g clip-path="url(#bc48ada646)"><g clip-path="url(#330e8e7798)"><g clip-path="url(#415fe71b94)"><path fill="#1667d6" d="M 143.441406 518.789062 C 137.347656 507.203125 137.347656 507.203125 131.773438 492.492188 C 131.148438 492.066406 130.574219 491.605469 130.054688 491.085938 C 129.523438 490.570312 129.191406 490.207031 128.886719 489.816406 C 119.03125 487.625 119.03125 487.625 110.675781 485.015625 C 111.410156 486.078125 111.703125 486.851562 111.625 487.269531 C 111.226562 487.625 109.703125 486.582031 107.972656 484.679688 C 106.410156 482.964844 105.351562 481.167969 105.582031 480.628906 C 105.96875 480.296875 107.332031 481.148438 108.902344 482.828125 C 115.230469 476.261719 115.230469 476.261719 124.949219 466.511719 C 112.136719 448.265625 112.136719 448.265625 100.34375 429.464844 C 99.351562 429.238281 98.132812 428.332031 97.144531 427.019531 C 95.472656 424.75 94.691406 421.742188 95.410156 420.316406 C 95.792969 419.859375 96.289062 419.605469 96.847656 419.570312 C 99.464844 390.40625 99.464844 390.40625 105.304688 356.871094 C 103.644531 341.179688 103.644531 341.179688 102.410156 325.34375 C 99.515625 316.460938 99.515625 316.460938 96.820312 307.734375 C 96.226562 307.921875 95.582031 307.699219 95.140625 306.863281 C 94.445312 305.8125 94.472656 303.953125 95.203125 302.757812 C 95.957031 301.5625 97.125 301.429688 97.820312 302.691406 C 98.539062 303.75 98.511719 305.566406 97.757812 306.757812 C 97.714844 306.957031 97.671875 306.957031 97.636719 306.949219 C 100.347656 315.84375 100.347656 315.84375 103.277344 324.707031 C 103.304688 324.902344 103.304688 324.902344 103.339844 325.097656 C 104.554688 340.851562 104.554688 340.851562 106.15625 356.273438 C 125.894531 356.941406 125.894531 356.941406 148.6875 357.160156 C 139.621094 342.121094 139.621094 342.121094 131.152344 327.253906 C 129.328125 328.605469 126.980469 328.101562 125.425781 326.125 C 123.546875 323.589844 123.503906 319.519531 125.320312 317.007812 C 126.234375 315.765625 127.449219 315.234375 128.667969 315.234375 C 131.882812 285.089844 136.371094 255.445312 141.933594 226.839844 C 141.070312 226.78125 140.324219 226.378906 139.777344 225.664062 C 138.933594 224.5625 138.628906 223.121094 138.992188 221.398438 C 129.96875 221.15625 129.96875 221.15625 121.566406 220.945312 C 121.488281 221.136719 121.277344 221.476562 121.035156 221.804688 C 120.015625 223.09375 118.6875 223.34375 118.097656 222.355469 C 117.417969 221.5625 117.703125 219.859375 118.722656 218.539062 C 119.757812 217.234375 121.042969 217 121.722656 217.824219 C 121.929688 218.398438 122.058594 218.921875 121.980469 219.570312 C 130.351562 219.808594 130.351562 219.808594 139.339844 220.101562 C 139.671875 219.214844 140.234375 218.242188 140.863281 217.539062 C 143.097656 214.976562 146.285156 214.375 147.921875 216.296875 C 148.199219 216.6875 148.453125 217.070312 148.589844 217.574219 C 165.355469 208.34375 165.355469 208.34375 183.160156 199.207031 C 210.515625 168.714844 210.515625 168.714844 237.957031 141.417969 C 235.984375 139.800781 236.339844 136.960938 238.859375 135.011719 C 241.582031 132.996094 245.257812 132.683594 247.484375 134.1875 C 247.960938 134.476562 248.257812 134.832031 248.378906 135.25 C 280.0625 125.191406 280.0625 125.191406 311.15625 117.210938 C 311.363281 109.683594 311.363281 109.683594 311.3125 102.710938 C 304.238281 95.976562 304.238281 95.976562 297.394531 89.910156 C 295.394531 90.394531 292.925781 90.222656 291.320312 89.402344 C 289.25 88.363281 289.390625 86.632812 291.398438 85.546875 C 293.648438 84.492188 297.09375 84.449219 299.167969 85.457031 C 301.21875 86.5 301.210938 88.222656 299.179688 89.316406 C 298.960938 89.40625 298.742188 89.484375 298.515625 89.554688 C 304.90625 95.226562 304.90625 95.226562 311.589844 101.480469 C 316.40625 84.335938 316.40625 84.335938 320.449219 71.59375 C 320.207031 71.535156 319.976562 71.457031 319.742188 71.367188 C 318.796875 70.960938 318.589844 70.375 319.597656 70.074219 C 320.597656 69.785156 322.066406 69.863281 323.019531 70.261719 C 323.960938 70.664062 324.152344 71.253906 323.144531 71.550781 C 322.882812 71.699219 322.394531 71.765625 321.65625 71.734375 C 317.78125 84.363281 317.78125 84.363281 313.085938 101.320312 C 326.96875 92.796875 326.96875 92.796875 339.683594 85.832031 C 337.53125 84.648438 337.296875 83.148438 339.085938 82.410156 C 340.882812 81.667969 344.171875 82.007812 346.351562 83.148438 C 348.742188 84.347656 349.132812 85.929688 347.300781 86.695312 C 345.515625 87.363281 342.726562 87.1875 340.539062 86.292969 C 327.308594 93.691406 327.308594 93.691406 312.78125 102.800781 C 312.601562 125.398438 312.601562 125.398438 312.417969 153.191406 C 313.546875 153.339844 314.792969 153.78125 315.859375 154.503906 C 344.335938 135.617188 344.335938 135.617188 369.699219 120.8125 C 367.902344 119.101562 367.726562 117.066406 369.421875 116.011719 C 371.144531 114.894531 374.378906 115.277344 376.75 116.796875 C 388.378906 110.6875 398.601562 105.601562 408.042969 101.734375 C 406.128906 100.246094 405.75 98.863281 406.820312 98.316406 C 407.554688 97.910156 409.058594 98.140625 410.640625 98.769531 C 411.296875 94.777344 411.296875 94.777344 411.945312 91.292969 C 411.730469 91.179688 411.519531 91.050781 411.300781 90.917969 C 410.035156 90.109375 409.375 89.179688 410.027344 88.964844 C 410.914062 88.875 412.605469 89.425781 413.875 90.242188 C 415.144531 91.058594 415.804688 91.972656 415.128906 92.179688 C 414.546875 92.222656 413.78125 92.082031 413.078125 91.816406 C 412.414062 95.292969 412.414062 95.292969 411.730469 99.28125 C 412.164062 99.5 412.582031 99.75 413.191406 100.148438 C 415.386719 101.671875 416.121094 103.332031 414.972656 103.941406 C 414.695312 103.949219 414.632812 104.054688 414.371094 104.046875 C 430.425781 120.753906 430.425781 120.753906 446.328125 139.765625 C 447.761719 139.824219 449.683594 140.738281 451.1875 142.144531 C 452.1875 143.085938 453.011719 144.222656 453.382812 145.171875 C 474.941406 154.417969 474.941406 154.417969 493.449219 164.269531 C 493.207031 163.53125 493.164062 162.949219 493.441406 162.730469 C 493.710938 162.207031 494.40625 162.292969 495.28125 162.851562 C 490.78125 148.820312 490.78125 148.820312 485.789062 136.871094 C 485.390625 136.546875 484.832031 136.015625 484.476562 135.644531 C 483.042969 134.183594 482.050781 132.636719 482.375 132.3125 C 482.6875 132 484.019531 132.851562 485.652344 134.511719 C 487.085938 135.984375 488.085938 137.523438 487.765625 137.832031 C 487.574219 138.007812 487.058594 137.789062 486.414062 137.339844 C 491.421875 149.273438 491.421875 149.273438 496.089844 163.476562 C 496.308594 163.625 496.65625 163.972656 496.996094 164.339844 C 501.203125 151.410156 501.203125 151.410156 501.183594 144.320312 C 500.339844 143.320312 499.855469 142.695312 499.722656 142.460938 C 499.75 142.433594 500.457031 143.214844 501.304688 144.214844 C 502.152344 145.222656 502.808594 146.046875 502.785156 146.066406 C 502.921875 146.300781 502.382812 145.71875 501.691406 144.917969 C 501.871094 152.1875 501.871094 152.1875 497.648438 165.078125 C 497.953125 165.46875 498.246094 165.875 498.507812 166.292969 C 512.722656 169.769531 512.722656 169.769531 521.675781 174.125 C 521.160156 173.222656 520.675781 172.285156 520.640625 171.996094 C 520.515625 171.457031 521.363281 172.464844 522.519531 174.214844 C 523.664062 175.984375 524.679688 177.820312 524.796875 178.351562 C 524.910156 178.90625 524.054688 177.890625 522.910156 176.136719 C 522.628906 175.699219 522.351562 175.25 522.214844 175.03125 C 513.101562 170.441406 513.101562 170.441406 499.003906 167.15625 C 499.691406 168.484375 500.046875 169.746094 499.726562 170.277344 C 499.445312 170.789062 498.726562 170.699219 497.847656 170.128906 C 505.847656 232.21875 505.847656 232.21875 501.328125 313 C 501.640625 313.398438 501.945312 313.605469 502.214844 314 C 503.675781 316.441406 503.648438 320.101562 502.152344 322.480469 C 500.613281 325.027344 498.148438 325.089844 496.644531 322.636719 C 496.40625 322.238281 496.199219 321.832031 496.027344 321.4375 C 474.101562 325.984375 448.460938 330.921875 419.367188 335.964844 C 446.367188 352.949219 446.367188 352.949219 469.667969 368.203125 C 483.5 363.09375 483.5 363.09375 496.050781 358.164062 C 496.128906 357.148438 496.433594 356.191406 497.015625 355.28125 C 498.105469 353.664062 499.660156 353.558594 500.492188 354.972656 C 501.347656 356.199219 501.136719 358.679688 500.050781 360.320312 C 499.007812 361.761719 497.441406 362.007812 496.5625 360.761719 C 496.375 360.292969 496.183594 360.042969 496.140625 359.417969 C 484.140625 364.242188 484.140625 364.242188 470.949219 369.175781 C 483.046875 379.011719 483.046875 379.011719 493.644531 387.839844 C 494.550781 386.632812 495.660156 386.605469 496.25 387.492188 C 496.84375 388.398438 496.601562 390.101562 495.714844 391.328125 C 494.816406 392.554688 493.636719 392.753906 493.035156 391.839844 C 492.585938 391.207031 492.59375 390.09375 492.949219 389.128906 C 482.238281 380.164062 482.238281 380.164062 469.976562 370.175781 C 467.628906 391.292969 467.628906 391.292969 464.726562 411.378906 C 465.238281 411.460938 465.691406 411.734375 466.054688 412.164062 C 467.070312 413.222656 466.699219 415.492188 465.289062 417.144531 C 463.882812 418.777344 461.96875 419.160156 460.976562 418.054688 C 460.054688 416.777344 460.394531 414.519531 461.785156 412.929688 C 462.394531 412.195312 462.949219 411.867188 463.59375 411.589844 C 466.558594 390.988281 466.558594 390.988281 468.898438 369.449219 C 445.019531 353.984375 445.019531 353.984375 417.304688 336.667969 C 406.996094 353.21875 406.996094 353.21875 396.261719 369.84375 C 396.515625 370.125 396.828125 370.308594 397.09375 370.585938 C 400.644531 374.4375 400.375 380.738281 396.359375 384.9375 C 393.429688 387.953125 389.367188 388.882812 385.910156 387.742188 C 371.140625 416.074219 371.140625 416.074219 356.300781 442.679688 C 356.6875 442.886719 357.101562 443.113281 357.390625 443.429688 C 359.882812 445.507812 359.582031 449.15625 356.894531 451.53125 C 354.140625 453.917969 350.078125 454.136719 347.652344 452.078125 C 346.183594 450.910156 345.613281 449.207031 345.941406 447.503906 C 293.648438 437.722656 293.648438 437.722656 240.5625 424.859375 C 240.484375 424.996094 240.40625 425.144531 240.214844 425.222656 C 238.683594 426.710938 236.378906 427.128906 234.164062 426.535156 C 233.722656 448.9375 233.722656 448.9375 233.632812 469.390625 C 234.78125 469.6875 236.007812 470.277344 236.960938 471.085938 C 239.570312 473.269531 239.847656 476.429688 237.695312 478.167969 C 236.328125 479.265625 234.148438 479.472656 232.234375 478.960938 C 224.664062 502.066406 224.664062 502.066406 218.675781 520.496094 C 219.285156 520.765625 219.667969 521.007812 220.246094 521.371094 C 222.515625 522.929688 223.1875 524.980469 221.4375 525.824219 C 219.898438 526.699219 216.703125 526.117188 214.171875 524.476562 C 212.433594 523.308594 211.773438 521.980469 211.980469 520.921875 C 194.472656 512.167969 177.34375 502.679688 160.722656 492.496094 C 146.578125 491.875 146.578125 491.875 134.425781 490.730469 C 135.078125 491.808594 135.398438 492.894531 134.792969 493.199219 C 149.761719 507.699219 149.761719 507.699219 164.917969 520.824219 C 165.910156 520.667969 167.980469 521.535156 169.980469 522.996094 C 171.96875 524.472656 172.996094 526.097656 171.933594 526.4375 C 180.167969 532.585938 180.167969 532.585938 188.21875 538.242188 C 189.355469 538.199219 191.5 538.949219 193.429688 540.128906 C 195.585938 541.433594 196.394531 542.667969 195.195312 542.875 C 194.230469 543.15625 191.574219 542.277344 189.617188 541.085938 C 187.449219 539.765625 186.652344 538.558594 187.640625 538.285156 C 179.574219 532.628906 179.574219 532.628906 171.542969 526.601562 C 170.371094 526.605469 168.285156 525.714844 166.460938 524.386719 C 166.257812 524.238281 166.058594 524.082031 165.867188 523.933594 C 155.800781 523.132812 155.800781 523.132812 147.167969 521.5625 C 148.316406 522.613281 148.753906 523.324219 148.371094 523.421875 C 148.046875 523.421875 147.535156 523.238281 146.839844 522.867188 C 154.394531 531.160156 154.394531 531.160156 162.164062 537.496094 C 162.617188 537.765625 163.292969 538.183594 163.957031 538.597656 C 165.535156 539.5625 166.640625 540.269531 166.171875 540.015625 C 166.171875 540.015625 165.726562 539.753906 165.46875 539.652344 C 163.894531 538.71875 162.320312 537.753906 160.757812 536.773438 C 160.113281 536.3125 159.902344 536.171875 160.128906 536.296875 C 160.363281 536.417969 160.816406 536.6875 161.488281 537.09375 C 153.722656 530.757812 153.722656 530.757812 146.167969 522.476562 C 145.507812 522.058594 144.867188 521.621094 144.050781 520.972656 C 143.847656 520.8125 143.847656 520.8125 143.648438 520.640625 C 141.503906 520.03125 141.503906 520.03125 139.425781 519.300781 C 140.390625 520.179688 140.902344 520.804688 140.574219 520.804688 C 140.226562 520.824219 138.695312 519.816406 137.0625 518.5 C 135.242188 517 134.148438 515.851562 134.511719 515.832031 C 134.871094 515.796875 136.425781 516.796875 138.234375 518.292969 C 138.433594 518.449219 138.433594 518.449219 138.632812 518.621094 C 140.710938 519.351562 140.710938 519.351562 142.859375 519.96875 C 141.917969 519.066406 141.265625 518.214844 141.667969 518.121094 C 142.015625 518.101562 142.746094 518.421875 143.441406 518.789062 Z M 212.851562 520.023438 C 212.867188 519.980469 213.09375 520.023438 213.109375 519.980469 C 191.5 499.902344 191.5 499.902344 169.648438 476.691406 C 167.300781 477.578125 163.460938 476.238281 160.519531 473.476562 C 159.441406 472.457031 158.660156 471.421875 158.140625 470.421875 C 141.441406 469.242188 141.441406 469.242188 126.933594 467.546875 C 167.273438 495.839844 167.273438 495.839844 212.441406 520.40625 C 212.503906 520.242188 212.78125 520.179688 212.851562 520.023438 Z M 213.953125 519.703125 C 214.988281 519.546875 216.144531 519.640625 217.429688 520.03125 C 223.332031 501.570312 223.332031 501.570312 230.730469 478.394531 C 230.246094 478.167969 229.628906 477.789062 229.050781 477.324219 C 228.199219 476.597656 227.445312 475.675781 227.078125 474.78125 C 198.21875 473.789062 198.21875 473.789062 171.796875 471.40625 C 172.367188 473.308594 172.066406 474.980469 170.945312 476.058594 C 170.675781 476.058594 170.570312 476.195312 170.472656 476.324219 C 192.222656 499.519531 192.222656 499.519531 213.953125 519.703125 Z M 165.113281 523.25 C 164.035156 522.160156 163.746094 521.242188 164.304688 520.855469 C 149.332031 507.863281 149.332031 507.863281 134.511719 493.5 C 134.078125 493.605469 133.324219 493.335938 132.636719 493.003906 C 138.214844 507.742188 138.214844 507.742188 144.308594 519.34375 C 144.746094 519.625 145.378906 520.074219 145.988281 520.554688 C 146.1875 520.710938 146.386719 520.882812 146.378906 520.890625 C 155.035156 522.464844 155.035156 522.464844 165.113281 523.25 Z M 127.585938 486.191406 C 127.96875 485.808594 128.871094 486 129.976562 486.609375 C 127.453125 477.585938 127.453125 477.585938 125.394531 467.964844 C 115.894531 477.324219 115.894531 477.324219 109.582031 483.59375 C 109.746094 483.785156 109.914062 483.984375 110.0625 484.191406 C 118.433594 486.800781 118.433594 486.800781 128.308594 489 C 127.488281 487.738281 127.140625 486.636719 127.585938 486.191406 Z M 130.851562 487.113281 C 131.460938 487.523438 132.027344 487.980469 132.550781 488.488281 C 133.070312 488.992188 133.390625 489.355469 133.695312 489.746094 C 145.554688 490.910156 145.554688 490.910156 159.191406 491.503906 C 142.136719 479.84375 142.136719 479.84375 126.105469 467.65625 C 128.289062 477.769531 128.289062 477.769531 130.851562 487.113281 Z M 445.089844 140.1875 C 445.207031 140.050781 445.492188 140.050781 445.597656 139.929688 C 429.566406 120.789062 429.566406 120.789062 413.539062 104.070312 C 412.234375 104 410.425781 103.351562 408.816406 102.324219 C 394.628906 108.738281 394.628906 108.738281 377.800781 117.59375 C 379.636719 119.246094 379.949219 121.246094 378.574219 122.410156 C 398.480469 139.605469 418.503906 158.710938 437.871094 179.167969 C 439.511719 178.113281 441.894531 178.253906 444.195312 179.316406 C 446.859375 162.09375 446.859375 162.09375 448.445312 146.960938 C 447.898438 146.570312 447.542969 146.300781 447.054688 145.839844 C 444.761719 143.71875 443.9375 141.222656 445.089844 140.1875 Z M 453.542969 146.003906 C 453.617188 146.597656 453.644531 147.238281 453.308594 147.597656 C 468.988281 164.144531 468.988281 164.144531 483.84375 181.453125 C 484.765625 180.785156 486.511719 181.496094 488.007812 182.964844 C 492.164062 174.863281 492.164062 174.863281 495.484375 167.9375 C 494.726562 166.980469 494.085938 165.945312 493.675781 165.023438 C 475.296875 155.382812 475.296875 155.382812 453.542969 146.003906 Z M 452.707031 147.933594 C 451.996094 148.371094 450.707031 148.117188 449.449219 147.515625 C 448.003906 162.738281 448.003906 162.738281 445.308594 179.894531 C 446.171875 180.445312 447.09375 181.210938 447.785156 181.914062 C 449.5625 183.78125 450.675781 185.945312 451.046875 187.957031 C 466 192.8125 466 192.8125 479.59375 197.675781 C 482.582031 192.875 482.582031 192.875 485.199219 188.183594 C 483.523438 186.085938 482.730469 183.359375 483.445312 182.019531 C 468.492188 164.582031 468.492188 164.582031 452.707031 147.933594 Z M 497.046875 169.511719 C 496.820312 169.371094 496.472656 169.023438 496.136719 168.660156 C 492.953125 175.75 492.953125 175.75 488.914062 184 C 490.476562 185.984375 491.3125 188.722656 490.609375 189.996094 C 497.207031 198.75 497.207031 198.75 503.386719 207.355469 C 500.757812 187.339844 500.757812 187.339844 497.046875 169.511719 Z M 496.710938 314 C 497.355469 313.015625 498.152344 312.617188 498.980469 312.414062 C 492.148438 253.863281 492.148438 253.863281 479.914062 199.757812 C 462.800781 226.785156 462.800781 226.785156 439.4375 259.582031 C 442.207031 262.875 442.9375 267.394531 441.558594 270.941406 C 471.300781 294.082031 471.300781 294.082031 496.015625 315.5625 C 496.199219 314.980469 496.433594 314.589844 496.710938 314 Z M 499.910156 312.40625 C 500.09375 312.40625 500.277344 312.40625 500.464844 312.605469 C 505.117188 257.367188 505.117188 257.367188 503.59375 209.050781 C 492.761719 204.175781 492.761719 204.175781 480.679688 199.273438 C 493.035156 253.585938 493.035156 253.585938 499.910156 312.40625 Z M 495.652344 320.054688 C 495.46875 319.074219 495.46875 317.894531 495.660156 316.925781 C 470.832031 295.515625 470.832031 295.515625 440.964844 272.34375 C 440.714844 272.722656 440.4375 273.109375 440.132812 273.5 C 438.148438 275.855469 435.203125 276.53125 432.445312 275.871094 C 425.816406 304.789062 425.816406 304.789062 418.140625 334.527344 C 460.996094 327.011719 460.996094 327.011719 495.652344 320.054688 Z M 490.199219 190.535156 C 489.226562 191.164062 487.574219 190.632812 486.09375 189.207031 C 483.550781 193.546875 483.550781 193.546875 480.820312 198.167969 C 492.363281 202.871094 492.363281 202.871094 502.804688 207.652344 C 496.65625 199.074219 496.65625 199.074219 490.199219 190.535156 Z M 377.707031 122.890625 C 376.949219 123.125 376.027344 123.195312 375.167969 123.148438 C 378.464844 144.394531 378.464844 144.394531 381.191406 168.984375 C 383.261719 169.367188 385.375 170.375 387.148438 171.949219 C 388.902344 173.542969 390.007812 175.503906 390.335938 177.402344 C 414.105469 180.671875 414.105469 180.671875 435.878906 184.285156 C 435.746094 182.574219 436.085938 180.929688 437.164062 179.863281 C 407.738281 149.542969 407.738281 149.542969 377.707031 122.890625 Z M 373.910156 122.984375 C 372.707031 122.699219 371.570312 122.230469 370.710938 121.613281 C 345.433594 136.503906 345.433594 136.503906 316.886719 155.449219 C 317.878906 156.570312 318.207031 157.886719 318.066406 159.164062 C 345.3125 165.910156 345.3125 165.910156 371.996094 173.507812 C 372.371094 172.421875 373.050781 171.429688 374.011719 170.613281 C 375.585938 169.335938 377.570312 168.726562 379.765625 168.832031 C 376.933594 144.152344 376.933594 144.152344 373.910156 122.984375 Z M 129.808594 315.382812 C 130.660156 315.554688 131.476562 316.214844 132.152344 317.058594 C 132.542969 317.546875 132.851562 318.214844 133.085938 318.703125 C 154.300781 309.183594 154.300781 309.183594 177.894531 299.078125 C 177.113281 295.730469 177.980469 291.828125 180.449219 289.035156 C 180.65625 288.828125 180.867188 288.628906 181.085938 288.425781 C 161.59375 255.308594 161.59375 255.308594 145.523438 225.761719 C 144.730469 226.34375 143.898438 226.691406 143.070312 226.855469 C 135.058594 270.390625 135.058594 270.390625 129.808594 315.382812 Z M 133.492188 320.199219 C 133.890625 322.355469 133.464844 324.554688 132.242188 326.160156 C 132.171875 326.328125 132.171875 326.328125 132.078125 326.335938 C 140.664062 341.449219 140.664062 341.449219 149.863281 356.664062 C 164.402344 331.230469 164.402344 331.230469 180.824219 304.394531 C 180.613281 304.136719 180.40625 303.875 180.191406 303.734375 C 179.390625 302.820312 178.78125 301.78125 178.363281 300.625 C 154.738281 310.800781 154.738281 310.800781 133.492188 320.199219 Z M 148.851562 218.800781 C 148.910156 219.46875 148.910156 220.105469 148.738281 220.832031 C 188.742188 226.625 188.742188 226.625 235.578125 234.910156 C 235.726562 233.628906 236.160156 232.34375 236.820312 231.160156 C 208.585938 214.8125 208.585938 214.8125 183.335938 200.519531 C 165.582031 209.609375 165.582031 209.609375 148.851562 218.800781 Z M 148.292969 222.226562 C 147.945312 223.058594 147.390625 223.964844 146.789062 224.640625 C 146.765625 224.632812 146.660156 224.769531 146.546875 224.910156 C 162.75 254.335938 162.75 254.335938 182.308594 287.445312 C 185.804688 285.082031 190.289062 285.382812 193.359375 288.339844 C 215.578125 265.835938 215.578125 265.835938 238.792969 243.390625 C 238.558594 243.269531 238.386719 243.085938 238.226562 242.894531 C 236.457031 241.167969 235.535156 238.914062 235.488281 236.550781 C 188.429688 228.171875 188.429688 228.171875 148.292969 222.226562 Z M 248.847656 136.1875 C 249.058594 136.925781 248.917969 137.75 248.570312 138.535156 C 276.367188 146.199219 276.367188 146.199219 305.734375 155.660156 C 306.0625 155.277344 306.386719 154.910156 306.882812 154.582031 C 307.878906 153.703125 309.355469 153.21875 310.816406 153.136719 C 311.105469 134.597656 311.105469 134.597656 311.289062 118.238281 C 280.359375 126.199219 280.359375 126.199219 248.847656 136.1875 Z M 247.761719 139.628906 C 247.492188 139.996094 247.207031 140.324219 246.746094 140.671875 C 245.839844 141.394531 244.675781 141.921875 243.449219 142.226562 C 244.171875 180.265625 244.171875 180.265625 246.035156 225.460938 C 248.257812 225.339844 250.457031 225.894531 252.214844 227.171875 C 280.316406 192.730469 280.316406 192.730469 307.035156 162.179688 C 307.035156 162.136719 307.035156 162.136719 306.882812 162.074219 C 305.105469 160.632812 304.542969 158.597656 305.21875 156.804688 C 275.675781 147.3125 275.675781 147.3125 247.761719 139.628906 Z M 241.992188 142.445312 C 241.042969 142.472656 240.027344 142.324219 239.128906 141.960938 C 211.628906 169.21875 211.628906 169.21875 184.558594 199.425781 C 209.679688 213.59375 209.679688 213.59375 237.742188 229.78125 C 238.082031 229.355469 238.359375 229.023438 238.742188 228.65625 C 240.4375 227.03125 242.425781 226.023438 244.433594 225.644531 C 242.667969 180.449219 242.667969 180.449219 241.992188 142.445312 Z M 97.691406 419.902344 C 98.378906 420.320312 98.996094 420.769531 99.707031 421.675781 C 108.453125 409.4375 108.453125 409.4375 119.449219 395.109375 C 117.03125 391.382812 116.605469 386.632812 118.515625 383.785156 C 118.65625 383.515625 118.882812 383.429688 119.03125 383.167969 C 112.292969 370.8125 112.292969 370.8125 106 358.558594 C 100.351562 391.449219 100.351562 391.449219 97.691406 419.902344 Z M 100.496094 422.804688 C 100.507812 422.804688 100.621094 423.003906 100.730469 423.195312 C 110.703125 418.484375 110.703125 418.484375 122.359375 412.757812 C 122.585938 405.765625 122.585938 405.765625 122.898438 398.515625 C 122.027344 398.054688 121.082031 397.195312 120.289062 396.242188 C 109.222656 410.488281 109.222656 410.488281 100.496094 422.804688 Z M 101.332031 424.421875 C 101.6875 425.273438 101.921875 426.1875 101.949219 426.957031 C 109.660156 433.175781 109.660156 433.175781 117.789062 439.335938 C 117.859375 439.007812 118.074219 438.867188 118.1875 438.527344 C 119.058594 437.398438 120.90625 437.722656 122.644531 439.164062 C 122.351562 427.238281 122.351562 427.238281 122.359375 414.390625 C 111 419.804688 111 419.804688 101.332031 424.421875 Z M 101.976562 427.992188 C 101.921875 428.289062 101.84375 428.609375 101.644531 428.722656 C 101.496094 429.070312 101.234375 429.21875 100.984375 429.367188 C 112.492188 447.726562 112.492188 447.726562 124.984375 465.554688 C 123.949219 456.84375 123.949219 456.84375 123.144531 447.5 C 122.109375 447.160156 120.960938 446.351562 119.933594 445.164062 C 118.621094 443.640625 117.8125 441.753906 117.8125 440.390625 C 109.566406 434.035156 109.566406 434.035156 101.976562 427.992188 Z M 123.726562 440.261719 C 123.726562 440.261719 123.726562 440.261719 123.734375 440.257812 C 125.152344 441.902344 125.925781 443.769531 125.890625 445.152344 C 141.003906 455.367188 141.003906 455.367188 157.15625 465.304688 C 157.367188 464.78125 157.601562 464.234375 158 463.808594 C 158.5625 463.519531 158.957031 463.105469 159.625 462.992188 C 145.203125 437.332031 145.203125 437.332031 131.679688 409.792969 C 127.496094 411.949219 127.496094 411.949219 123.375 413.816406 C 123.273438 427.394531 123.273438 427.394531 123.726562 440.261719 Z M 125.914062 446.238281 C 125.84375 446.5625 125.628906 446.71875 125.535156 447.066406 C 125.113281 447.394531 124.699219 447.707031 124.070312 447.628906 C 124.828125 457.296875 124.828125 457.296875 125.855469 466.328125 C 140.65625 468.144531 140.65625 468.144531 157.519531 469.214844 C 157.078125 468.152344 156.894531 467.113281 157.085938 466.300781 C 140.761719 456.160156 140.761719 456.160156 125.914062 446.238281 Z M 228.191406 470.261719 C 229.164062 469.390625 230.625 469.050781 232.226562 469.191406 C 232.234375 448.554688 232.234375 448.554688 232.675781 425.96875 C 232.09375 425.65625 231.546875 425.292969 231.148438 424.9375 C 197.378906 448.945312 197.378906 448.945312 169.597656 467.40625 C 170.386719 468.347656 171.089844 469.40625 171.40625 470.292969 C 197.839844 472.621094 197.839844 472.621094 226.835938 473.621094 C 226.65625 472.335938 227.199219 471.171875 228.191406 470.261719 Z M 230.292969 415.808594 C 232.625 413.6875 236.355469 413.6875 239.09375 415.800781 C 251.234375 404.429688 251.234375 404.429688 263.761719 392.453125 C 241.996094 393.078125 241.996094 393.078125 220.878906 393.355469 C 220.550781 394.035156 220.113281 394.632812 219.570312 395.171875 C 219.148438 395.597656 218.742188 396.015625 218.167969 396.25 C 224.203125 406.101562 224.203125 406.101562 230.292969 415.808594 Z M 240.34375 416.964844 C 241.984375 418.929688 242.472656 421.574219 241.386719 423.582031 C 294.339844 436.378906 294.339844 436.378906 346.367188 446.15625 C 346.820312 445.332031 347.304688 444.609375 348.089844 443.933594 C 349.957031 442.238281 352.675781 441.609375 355 442.132812 C 369.8125 415.472656 369.8125 415.472656 384.542969 387.136719 C 383.78125 386.777344 383.152344 386.214844 382.5 385.648438 C 382.085938 385.152344 381.691406 384.65625 381.308594 384.1875 C 324.582031 389.183594 324.582031 389.183594 266.265625 392.347656 C 253.050781 404.953125 253.050781 404.953125 240.34375 416.964844 Z M 230.042969 423.761719 C 228.453125 421.675781 228.207031 419.058594 229.3125 417.015625 C 223.078125 407.089844 223.078125 407.089844 216.8125 396.910156 C 214.09375 398.078125 210.753906 397.746094 207.980469 396.09375 C 185.101562 434.550781 185.101562 434.550781 167.734375 465.554688 C 167.898438 465.675781 168.203125 465.9375 168.492188 466.214844 C 168.648438 466.355469 168.648438 466.355469 168.640625 466.363281 C 196.324219 447.816406 196.324219 447.816406 230.042969 423.761719 Z M 390.582031 178.785156 C 390.539062 180.589844 389.910156 182.382812 388.460938 183.675781 C 386.148438 185.71875 382.601562 186.101562 379.375 184.972656 C 370.503906 210 370.503906 210 360.464844 237.394531 C 402.734375 210.5625 402.734375 210.5625 437.601562 189.042969 C 436.894531 187.9375 436.324219 186.6875 436 185.453125 C 414.214844 181.902344 414.214844 181.902344 390.582031 178.785156 Z M 377.832031 184.300781 C 376.890625 183.824219 376.019531 183.222656 375.222656 182.484375 C 372.675781 180.207031 371.582031 177.367188 371.855469 174.8125 C 344.9375 167.125 344.9375 167.125 317.765625 160.398438 C 317.382812 161.050781 317.007812 161.683594 316.335938 162.214844 C 314.183594 163.941406 310.851562 164.179688 308.359375 162.96875 C 281.578125 193.621094 281.578125 193.621094 253.441406 228.171875 C 255.335938 230.050781 256.257812 232.535156 256.195312 235.082031 C 290.234375 235.550781 324.511719 236.742188 358.28125 238.640625 C 368.605469 210.15625 368.605469 210.15625 377.832031 184.300781 Z M 451.28125 189.285156 C 451.324219 190.773438 450.90625 192.117188 449.996094 193.09375 C 448.589844 194.710938 446.195312 194.953125 443.738281 194.058594 C 440.753906 223.863281 440.753906 223.863281 435.992188 256.984375 C 436.800781 257.285156 437.644531 257.902344 438.394531 258.554688 C 461.851562 225.621094 461.851562 225.621094 479.152344 198.726562 C 465.703125 193.789062 465.703125 193.789062 451.28125 189.285156 Z M 442.5625 193.589844 C 441.347656 192.917969 440.261719 192.144531 439.234375 191.074219 C 438.980469 190.804688 438.730469 190.527344 438.488281 190.242188 C 402.890625 212.25 402.890625 212.25 359.757812 239.847656 C 364.445312 258.042969 364.445312 258.042969 369.113281 276.6875 C 372.234375 276.289062 375.546875 277.375 377.972656 279.871094 C 379.171875 281.113281 380.039062 282.605469 380.550781 284.152344 C 403.699219 275.914062 403.699219 275.914062 425.316406 268.246094 C 424.355469 264.902344 424.929688 261.191406 427.136719 258.761719 C 429.117188 256.511719 431.917969 255.738281 434.628906 256.445312 C 439.445312 223.324219 439.445312 223.324219 442.5625 193.589844 Z M 431.0625 275.269531 C 429.90625 274.765625 428.804688 273.976562 427.832031 272.878906 C 426.980469 271.898438 426.328125 270.847656 425.855469 269.75 C 404.171875 277.496094 404.171875 277.496094 380.953125 285.816406 C 381.484375 289.046875 380.578125 292.449219 378.222656 294.976562 C 377.03125 296.238281 375.582031 297.046875 374.066406 297.542969 C 381.925781 333.269531 381.925781 333.269531 388.785156 368.125 C 390.933594 367.707031 393.113281 368.011719 395.011719 368.992188 C 405.933594 352.097656 405.933594 352.097656 416.4375 335.179688 C 424.300781 304.902344 424.300781 304.902344 431.0625 275.269531 Z M 383.09375 371.234375 C 384.363281 369.90625 385.777344 369.019531 387.253906 368.507812 C 380.351562 333.65625 380.351562 333.65625 372.460938 297.898438 C 369.574219 298.316406 366.515625 297.472656 364.132812 295.402344 C 332.386719 327.5625 299.859375 359.820312 268.074219 390.679688 C 325.097656 387.5 325.097656 387.5 380.535156 382.675781 C 379.085938 379 379.972656 374.425781 383.09375 371.234375 Z M 119.777344 382.464844 C 122.011719 381.210938 125.078125 381.863281 127.574219 384.703125 C 137.394531 372.257812 137.394531 372.257812 148.347656 358.75 C 126.027344 358.382812 126.027344 358.382812 106.6875 357.785156 C 113.046875 370.171875 113.046875 370.171875 119.777344 382.464844 Z M 128.496094 385.9375 C 129.382812 387.175781 130 388.53125 130.390625 389.988281 C 148.964844 389.84375 148.964844 389.84375 169.535156 389.148438 C 159.535156 374.265625 159.535156 374.265625 149.894531 359.105469 C 138.550781 372.945312 138.550781 372.945312 128.496094 385.9375 Z M 130.714844 391.476562 C 131.050781 393.796875 130.667969 396.066406 129.511719 397.675781 C 129.085938 398.316406 128.582031 398.777344 127.992188 399.066406 C 130.015625 403.65625 130.015625 403.65625 131.980469 408.078125 C 148.480469 400.046875 148.480469 400.046875 167.257812 390.816406 C 148.039062 391.261719 148.039062 391.261719 130.714844 391.476562 Z M 127.035156 399.328125 C 126.089844 399.578125 125.011719 399.449219 123.976562 399.082031 C 123.613281 405.671875 123.613281 405.671875 123.488281 412.355469 C 127.234375 410.496094 127.234375 410.496094 131.128906 408.546875 C 129.054688 403.949219 129.054688 403.949219 127.035156 399.328125 Z M 194.367188 289.585938 C 197.367188 293.609375 197.0625 299.71875 193.496094 303.570312 C 191.296875 305.996094 188.332031 307.019531 185.527344 306.613281 C 180.796875 331.949219 180.796875 331.949219 176.75 356.777344 C 197.851562 349.34375 197.851562 349.34375 220.351562 341.296875 C 231.066406 293.097656 231.066406 293.097656 242.992188 245.488281 C 241.976562 245.253906 241.027344 244.84375 240.097656 244.324219 C 216.730469 266.929688 216.730469 266.929688 194.367188 289.585938 Z M 184.082031 306.289062 C 183.363281 306.011719 182.667969 305.726562 182.007812 305.324219 C 165.65625 331.890625 165.65625 331.890625 151.175781 357.265625 C 162.917969 357.304688 162.917969 357.304688 175.234375 357.160156 C 179.304688 332.046875 179.304688 332.046875 184.082031 306.289062 Z M 256.074219 236.679688 C 255.847656 237.882812 255.429688 239.054688 254.769531 240.152344 C 307.875 260.527344 307.875 260.527344 361.410156 282.421875 C 361.882812 281.390625 362.507812 280.425781 363.324219 279.582031 C 364.558594 278.40625 365.992188 277.523438 367.515625 277.035156 C 362.871094 258.414062 362.871094 258.414062 358.222656 240.257812 C 307.265625 237.699219 307.265625 237.699219 256.074219 236.679688 Z M 253.804688 241.542969 C 253.511719 241.878906 253.277344 242.15625 252.96875 242.453125 C 250.605469 244.757812 247.5625 245.828125 244.652344 245.671875 C 232.8125 292.871094 232.8125 292.871094 222.132812 340.609375 C 291.113281 316.070312 291.113281 316.070312 361.132812 291.082031 C 360.230469 288.789062 360.117188 286.265625 360.800781 283.953125 C 307.089844 262.023438 307.089844 262.023438 253.804688 241.542969 Z M 362.949219 294.175781 C 362.542969 293.6875 362.167969 293.125 361.863281 292.605469 C 291.246094 317.820312 291.246094 317.820312 221.738281 342.511719 C 218.070312 360.59375 218.070312 360.59375 214.707031 378.230469 C 216.167969 378.726562 217.585938 379.632812 218.847656 380.925781 C 221.8125 383.933594 222.792969 388.246094 221.566406 391.730469 C 243.210938 391.425781 243.210938 391.425781 265.480469 390.75 C 314.203125 343.246094 314.203125 343.246094 362.949219 294.175781 Z M 204.894531 380.210938 C 207.078125 378.011719 210.109375 377.125 213.152344 377.769531 C 216.386719 360.65625 216.386719 360.65625 219.933594 343.164062 C 197.507812 351.203125 197.507812 351.203125 176.511719 358.679688 C 173.886719 374.058594 173.886719 374.058594 171.671875 389.128906 C 186.660156 388.398438 186.660156 388.398438 202.503906 387.539062 C 202.25 384.855469 203.058594 382.21875 204.894531 380.210938 Z M 206.632812 395.144531 C 206.335938 394.902344 205.964844 394.5625 205.703125 394.296875 C 204.21875 392.789062 203.269531 391 202.738281 389.0625 C 186.710938 390.007812 186.710938 390.007812 171.445312 390.644531 C 166.988281 430.175781 166.988281 430.175781 165.171875 463.886719 C 165.5625 464.050781 166.085938 464.375 166.597656 464.71875 C 183.875 433.664062 183.875 433.664062 206.632812 395.144531 Z M 160.617188 462.835938 C 161.574219 462.703125 162.761719 462.921875 163.980469 463.390625 C 165.5625 430.011719 165.5625 430.011719 169.925781 391.199219 C 150.011719 400.980469 150.011719 400.980469 132.632812 409.480469 C 146.03125 436.929688 146.03125 436.929688 160.617188 462.835938 Z M 151.164062 358.730469 C 160.570312 373.484375 160.570312 373.484375 170.394531 388.132812 C 172.503906 373.613281 172.503906 373.613281 174.984375 358.800781 C 162.789062 358.863281 162.789062 358.863281 151.164062 358.730469 Z M 151.164062 358.730469 " fill-opacity="1" fill-rule="nonzero"/></g></g></g><g fill="#ffffff" fill-opacity="1"><g transform="translate(543.731734, 95.293474)"><g><path d="M 2.703125 -1.550781 L 2.703125 -8.515625 L 0.742188 -8.515625 L 0.742188 0 L 6.683594 0 L 6.683594 -1.550781 Z M 2.703125 -1.550781 "/></g></g></g><g fill="#ffffff" fill-opacity="1"><g transform="translate(550.655767, 95.293474)"><g><path d="M 0.652344 -7.246094 L 2.714844 -7.246094 L 2.714844 -8.515625 L 0.652344 -8.515625 Z M 0.742188 0 L 2.636719 0 L 2.636719 -6.402344 L 0.742188 -6.402344 Z M 0.742188 0 "/></g></g></g><g fill="#ffffff" fill-opacity="1"><g transform="translate(554.021798, 95.293474)"><g><path d="M 0.472656 -3.199219 C 0.472656 -1.410156 1.523438 0.203125 4.019531 0.203125 C 6.273438 0.203125 7.335938 -1.140625 7.375 -2.636719 L 5.53125 -2.636719 C 5.453125 -1.871094 5.007812 -1.28125 3.996094 -1.28125 C 2.96875 -1.28125 2.382812 -1.753906 2.382812 -3.199219 C 2.382812 -4.636719 2.996094 -5.121094 4.019531 -5.121094 C 4.992188 -5.121094 5.429688 -4.597656 5.492188 -3.800781 L 7.335938 -3.800781 C 7.285156 -5.378906 6.195312 -6.605469 3.980469 -6.605469 C 1.496094 -6.605469 0.472656 -4.992188 0.472656 -3.199219 Z M 0.472656 -3.199219 "/></g></g></g><g fill="#ffffff" fill-opacity="1"><g transform="translate(561.816135, 95.293474)"><g><path d="M 3.957031 -1.101562 C 3.046875 -1.101562 2.445312 -1.496094 2.332031 -2.714844 L 7.207031 -2.714844 C 7.234375 -2.855469 7.234375 -3.035156 7.234375 -3.226562 C 7.234375 -5.03125 6.335938 -6.605469 3.917969 -6.605469 C 1.550781 -6.605469 0.472656 -5.070312 0.472656 -3.214844 C 0.472656 -1.410156 1.421875 0.203125 3.917969 0.203125 C 6.222656 0.203125 7.042969 -0.910156 7.222656 -1.933594 L 5.402344 -1.933594 C 5.222656 -1.460938 4.789062 -1.101562 3.957031 -1.101562 Z M 3.945312 -5.328125 C 4.890625 -5.328125 5.363281 -4.839844 5.429688 -3.867188 L 2.34375 -3.867188 C 2.496094 -4.953125 3.035156 -5.328125 3.945312 -5.328125 Z M 3.945312 -5.328125 "/></g></g></g><g fill="#ffffff" fill-opacity="1"><g transform="translate(569.495288, 95.293474)"><g><path d="M 4.546875 -6.503906 C 3.46875 -6.503906 2.894531 -5.941406 2.585938 -5.03125 L 2.585938 -6.402344 L 0.742188 -6.402344 L 0.742188 0 L 2.636719 0 L 2.636719 -2.523438 C 2.636719 -3.96875 3.074219 -4.660156 4.339844 -4.660156 L 4.96875 -4.660156 L 4.96875 -6.503906 Z M 4.546875 -6.503906 "/></g></g></g><g fill="#ffffff" fill-opacity="1"><g transform="translate(574.75551, 95.293474)"><g><path d="M 0.652344 -7.246094 L 2.714844 -7.246094 L 2.714844 -8.515625 L 0.652344 -8.515625 Z M 0.742188 0 L 2.636719 0 L 2.636719 -6.402344 L 0.742188 -6.402344 Z M 0.742188 0 "/></g></g></g><g fill="#ffffff" fill-opacity="1"><g transform="translate(578.121542, 95.293474)"><g><path d="M 2.6875 0.167969 C 3.996094 0.167969 4.761719 -0.488281 5.058594 -1.371094 C 5.058594 -0.84375 5.097656 -0.421875 5.160156 0 L 6.8125 0 C 6.746094 -0.550781 6.707031 -1.0625 6.707031 -1.664062 L 6.707031 -4.429688 C 6.707031 -5.785156 5.761719 -6.621094 3.816406 -6.621094 C 1.871094 -6.621094 0.742188 -5.683594 0.691406 -4.316406 L 2.546875 -4.316406 C 2.574219 -4.96875 2.984375 -5.3125 3.855469 -5.3125 C 4.710938 -5.3125 4.96875 -5.019531 4.96875 -4.570312 C 4.96875 -4.199219 4.761719 -4.03125 4.175781 -3.929688 L 2.664062 -3.675781 C 1.011719 -3.394531 0.5625 -2.726562 0.5625 -1.703125 C 0.5625 -0.550781 1.394531 0.167969 2.6875 0.167969 Z M 3.328125 -1.125 C 2.816406 -1.125 2.433594 -1.382812 2.433594 -1.894531 C 2.433594 -2.382812 2.703125 -2.625 3.378906 -2.792969 L 3.917969 -2.917969 C 4.316406 -3.007812 4.636719 -3.097656 4.96875 -3.328125 L 4.96875 -3.046875 C 4.96875 -1.855469 4.328125 -1.125 3.328125 -1.125 Z M 3.328125 -1.125 "/></g></g></g><g fill="#ffffff" fill-opacity="1"><g transform="translate(585.531927, 95.293474)"><g/></g></g><g fill="#ffffff" fill-opacity="1"><g transform="translate(588.769966, 95.293474)"><g><path d="M 9.050781 -3.546875 L 9.050781 -4.800781 L 7.71875 -4.800781 C 6.976562 -4.800781 6.515625 -4.441406 6.425781 -3.609375 C 6.402344 -3.316406 6.351562 -3.046875 6.273438 -2.792969 L 4.558594 -4.25 L 5.328125 -4.621094 C 6.414062 -5.148438 6.925781 -5.800781 6.925781 -6.734375 C 6.925781 -7.964844 5.914062 -8.730469 4.289062 -8.730469 C 2.574219 -8.730469 1.445312 -7.914062 1.445312 -6.441406 C 1.445312 -5.734375 1.742188 -5.148438 2.265625 -4.546875 C 1.230469 -3.980469 0.679688 -3.265625 0.679688 -2.164062 C 0.679688 -0.589844 1.996094 0.21875 3.816406 0.21875 C 5.03125 0.21875 5.941406 -0.140625 6.59375 -0.769531 L 7.9375 0.371094 L 8.835938 -0.613281 L 7.347656 -1.882812 C 7.566406 -2.367188 7.707031 -2.933594 7.773438 -3.546875 Z M 4.261719 -7.515625 C 4.980469 -7.515625 5.339844 -7.167969 5.339844 -6.59375 C 5.339844 -6.082031 4.941406 -5.8125 4.328125 -5.519531 L 3.585938 -5.171875 C 3.226562 -5.609375 3.074219 -5.992188 3.074219 -6.464844 C 3.074219 -7.144531 3.535156 -7.515625 4.261719 -7.515625 Z M 3.917969 -1.050781 C 2.867188 -1.050781 2.304688 -1.535156 2.304688 -2.253906 C 2.304688 -2.765625 2.625 -3.226562 3.253906 -3.597656 L 5.570312 -1.640625 C 5.160156 -1.265625 4.609375 -1.050781 3.917969 -1.050781 Z M 3.917969 -1.050781 "/></g></g></g><g fill="#ffffff" fill-opacity="1"><g transform="translate(598.253717, 95.293474)"><g/></g></g><g fill="#ffffff" fill-opacity="1"><g transform="translate(601.491757, 95.293474)"><g><path d="M 5.03125 0.21875 C 8.039062 0.21875 9.21875 -0.984375 9.398438 -3.445312 L 7.386719 -3.445312 C 7.285156 -2.113281 6.644531 -1.382812 5.007812 -1.382812 C 3.304688 -1.382812 2.613281 -2.367188 2.613281 -4.25 C 2.613281 -6.160156 3.355469 -7.144531 5.070312 -7.144531 C 6.644531 -7.144531 7.246094 -6.425781 7.363281 -5.171875 L 9.359375 -5.171875 C 9.167969 -7.503906 7.976562 -8.730469 5.042969 -8.730469 C 1.84375 -8.730469 0.574219 -6.605469 0.574219 -4.25 C 0.574219 -1.855469 1.832031 0.21875 5.03125 0.21875 Z M 5.03125 0.21875 "/></g></g></g><g fill="#ffffff" fill-opacity="1"><g transform="translate(611.397869, 95.293474)"><g><path d="M 4.019531 0.203125 C 6.582031 0.203125 7.566406 -1.433594 7.566406 -3.214844 C 7.566406 -4.96875 6.582031 -6.605469 4.019531 -6.605469 C 1.472656 -6.605469 0.472656 -4.980469 0.472656 -3.214844 C 0.472656 -1.421875 1.472656 0.203125 4.019531 0.203125 Z M 2.382812 -3.199219 C 2.382812 -4.621094 2.867188 -5.121094 4.019531 -5.121094 C 5.183594 -5.121094 5.671875 -4.621094 5.671875 -3.199219 C 5.671875 -1.78125 5.183594 -1.28125 4.019531 -1.28125 C 2.867188 -1.28125 2.382812 -1.78125 2.382812 -3.199219 Z M 2.382812 -3.199219 "/></g></g></g><g fill="#ffffff" fill-opacity="1"><g transform="translate(619.435382, 95.293474)"><g><path d="M 0.257812 0 L 2.152344 0 L 2.152344 -1.691406 L 0.257812 -1.691406 Z M 0.257812 0 "/></g></g></g></svg>